<?xml version="1.0" encoding="utf-8"?>
<!-- Generator: Adobe Illustrator 22.1.0, SVG Export Plug-In . SVG Version: 6.00 Build 0)  -->
<!DOCTYPE svg PUBLIC "-//W3C//DTD SVG 1.1//EN" "http://www.w3.org/Graphics/SVG/1.1/DTD/svg11.dtd">
<svg version="1.1" id="Calque_1" xmlns="http://www.w3.org/2000/svg" xmlns:xlink="http://www.w3.org/1999/xlink" x="0px" y="0px"
	 viewBox="0 0 40 40" style="enable-background:new 0 0 40 40;" xml:space="preserve">
<style type="text/css">
	.st0{fill:#304146;}
</style>
<g>
	<path class="st0" d="M20,16c0,0-0.1,0-0.1,0c-1,0-1.9,0.4-2.6,1.1c-0.8,0.7-1.2,1.8-1.2,2.9c0,2.2,1.8,3.9,3.9,3.9
		c2.2,0,3.9-1.7,3.9-4c0-1.1-0.3-2.1-0.9-2.7C22.3,16.5,21.3,16.1,20,16z"/>
	<path class="st0" d="M24.5,10.5h-9c-2.6,0-4.7,2.1-4.7,4.7v9.6c0,2.6,2.1,4.7,4.7,4.7h9c2.6,0,4.7-2.1,4.7-4.7v-9.6
		C29.2,12.6,27.1,10.5,24.5,10.5z M24.2,24.2c-1.1,1.1-2.6,1.7-4.2,1.7c-3.3,0-5.9-2.7-5.9-5.9c0-1.6,0.7-3.2,1.8-4.3
		C17,14.6,18.5,14,20,14c1.8,0.1,3.4,0.7,4.4,1.8c1,1.1,1.5,2.5,1.5,4.2C25.9,21.6,25.3,23.1,24.2,24.2z M26.1,15.2
		c-0.8,0-1.4-0.6-1.4-1.4s0.6-1.4,1.4-1.4c0.8,0,1.4,0.6,1.4,1.4S26.8,15.2,26.1,15.2z"/>
	<path class="st0" d="M20,0C9,0,0,9,0,20c0,11,9,20,20,20s20-9,20-20C40,9,31,0,20,0z M30.9,24.8c0,3.5-2.9,6.4-6.4,6.4h-9
		c-3.5,0-6.4-2.9-6.4-6.4v-9.6c0-3.5,2.9-6.4,6.4-6.4h9c3.5,0,6.4,2.9,6.4,6.4V24.8z"/>
</g>
</svg>
