<?xml version="1.0" encoding="utf-8"?>
<!-- Generator: Adobe Illustrator 22.1.0, SVG Export Plug-In . SVG Version: 6.00 Build 0)  -->
<!DOCTYPE svg PUBLIC "-//W3C//DTD SVG 1.1//EN" "http://www.w3.org/Graphics/SVG/1.1/DTD/svg11.dtd">
<svg version="1.1" id="Calque_1" xmlns="http://www.w3.org/2000/svg" xmlns:xlink="http://www.w3.org/1999/xlink" x="0px" y="0px"
	 viewBox="0 0 40 40" style="enable-background:new 0 0 40 40;" xml:space="preserve">
<style type="text/css">
	.st0{fill:#304146;}
</style>
<path class="st0" d="M20,0C9,0,0,9,0,20c0,11,9,20,20,20s20-9,20-20C40,9,31,0,20,0z M24.7,19.9h-2.8v10.3h-4.2V19.9h-2.3v-3.6h2.2
	c0-1.1,0-2,0-3c0-2.8,2.2-3.6,4.1-3.6H25h0v3.5c-0.3,0-1.3,0-1.9,0c-0.1,0-1.2-0.1-1.2,1c0,0.5,0,2,0,2H25L24.7,19.9z"/>
</svg>
