<?xml version="1.0" encoding="utf-8"?>
<!-- Generator: Adobe Illustrator 22.1.0, SVG Export Plug-In . SVG Version: 6.00 Build 0)  -->
<!DOCTYPE svg PUBLIC "-//W3C//DTD SVG 1.1//EN" "http://www.w3.org/Graphics/SVG/1.1/DTD/svg11.dtd">
<svg version="1.1" id="Calque_1" xmlns="http://www.w3.org/2000/svg" xmlns:xlink="http://www.w3.org/1999/xlink" x="0px" y="0px"
	 viewBox="0 0 40 40" style="enable-background:new 0 0 40 40;" xml:space="preserve">
<style type="text/css">
	.st0{fill:#304146;}
</style>
<path class="st0" d="M20,0C9,0,0,9,0,20c0,11,9,20,20,20s20-9,20-20C40,9,31,0,20,0z M16.1,27.4h-3.4V16.5h3.4V27.4z M14.4,15.1
	c-1.1,0-2-0.9-2-2c0-1.1,0.9-2,2-2s2,0.9,2,2C16.4,14.2,15.5,15.1,14.4,15.1z M28.7,27.4h-3.3v-5.7c0-1.6-0.6-2.4-1.8-2.4
	c-1.3,0-2,0.9-2,2.4v5.7h-3.2V16.5h3.2V18c0,0,1-1.8,3.3-1.8c2.3,0,3.9,1.4,3.9,4.3L28.7,27.4z"/>
</svg>
