<?xml version="1.0" encoding="UTF-8"?>
<svg id="Calque_1" xmlns="http://www.w3.org/2000/svg" version="1.1" viewBox="0 0 374 40">
  <!-- Generator: Adobe Illustrator 30.3.0, SVG Export Plug-In . SVG Version: 2.1.3 Build 182)  -->
  <defs>
    <style>
      .st0 {
        fill: #304146;
      }
    </style>
  </defs>
  <g>
    <path class="st0" d="M130.5,24h6v2.4h-8.9v-14.3h2.9v11.8Z"/>
    <path class="st0" d="M139.2,15.2l-2.8,2.4v-5.8h2.8v3.4Z"/>
    <path class="st0" d="M139.7,26.4l5-14.3h2.8l5,14.3h-3.1l-.9-2.7h-4.8l-.9,2.7h-3.1ZM144.5,21.3h3.2l-1.6-5-1.6,5Z"/>
    <path class="st0" d="M163.2,23.7l2,1.7-1.5,1.8-1.9-1.6c-.9.7-2,1-3.4,1-3.2,0-5.5-1.9-5.5-6.3v-2c0-4.4,2.3-6.3,5.5-6.3s5.5,1.9,5.5,6.3v2c0,1.4-.2,2.5-.6,3.4ZM155.8,20.3c0,2.7.9,3.9,2.6,3.9s1-.1,1.3-.3l-1.6-1.4,1.6-1.8,1.2,1.1c0-.4.1-.9.1-1.4v-2c0-2.7-.9-3.9-2.6-3.9s-2.6,1.1-2.6,3.9v2Z"/>
    <path class="st0" d="M177.3,12.2v8.5c0,4.2-2.3,6-5.5,6s-5.5-1.8-5.5-6v-8.5h2.9v8.5c0,2.4.8,3.5,2.6,3.5s2.6-1.1,2.6-3.5v-8.5h2.9Z"/>
    <path class="st0" d="M178.6,26.4l5-14.3h2.8l5,14.3h-3.1l-.9-2.7h-4.8l-.9,2.7h-3.1ZM183.3,21.3h3.2l-1.6-5-1.6,5Z"/>
    <path class="st0" d="M195.5,21.4v5h-2.9v-14.3h5.1c3.3,0,5.3,1.5,5.3,4.6s-2,4.7-5.3,4.7h-2.2ZM197.3,19c2,0,2.9-.7,2.9-2.2s-.8-2.1-2.9-2.1h-1.8v4.3h1.8Z"/>
    <path class="st0" d="M209.9,26.6c-3.2,0-5.5-1.9-5.5-6.3v-2c0-4.4,2.3-6.3,5.5-6.3s5.5,1.9,5.5,6.3v2c0,4.4-2.3,6.3-5.5,6.3ZM207.3,20.3c0,2.7.9,3.9,2.6,3.9s2.6-1.1,2.6-3.9v-2c0-2.7-.9-3.9-2.6-3.9s-2.6,1.1-2.6,3.9v2Z"/>
    <path class="st0" d="M228.4,12.2v14.3h-2.4l-5.6-8.8v8.8h-2.7v-14.3h2.4l5.6,8.9v-8.9h2.7Z"/>
    <path class="st0" d="M234.4,26.4h-2.9v-14.3h2.9v14.3Z"/>
    <path class="st0" d="M246.3,12.2v2.5h-6v3.2h5.4v2.4h-5.4v3.7h6v2.4h-8.9v-14.3h8.9Z"/>
    <path class="st0" d="M261.2,15.3c-.8-1-1.6-1.7-3.4-1.7s-2.8.7-2.8,2.2,1.3,2.3,3.4,2.6c2.7.5,4.4,1.5,4.4,4.1s-1.2,4-4.8,4-4-.8-5.1-2.3l1.5-1c.9,1.1,1.8,1.7,3.6,1.7s3-1.1,3-2.3-.7-2.3-3.4-2.7c-2.7-.4-4.4-1.7-4.4-4.2s1.3-3.8,4.6-3.8,3.7.8,4.7,2.3l-1.4,1Z"/>
    <path class="st0" d="M275.9,12.2v8.5c0,4.2-2,6-5.2,6s-5.2-1.8-5.2-6v-8.5h1.8v8.5c0,3.1,1.2,4.3,3.4,4.3s3.4-1.2,3.4-4.3v-8.5h1.8Z"/>
    <path class="st0" d="M287.6,26.4l-3-6h-3.4v6h-1.8v-14.3h4.5c3.3,0,5.2,1.4,5.2,4.1s-1,3.3-2.8,3.8l3.2,6.3h-2ZM284,18.8c2.4,0,3.4-.7,3.4-2.5s-1-2.5-3.4-2.5h-2.8v5h2.8Z"/>
    <path class="st0" d="M290.8,18.6h5.4v1.5h-5.4v-1.5Z"/>
    <path class="st0" d="M304.5,21.1l4.3-8.9h1.8v14.3h-1.8v-10.5l-3.5,7.5h-1.6l-3.4-7.4v10.4h-1.8v-14.3h1.7l4.3,8.9Z"/>
    <path class="st0" d="M322.7,12.2v1.6h-6.8v4.5h6.2v1.6h-6.2v5h6.8v1.6h-8.6v-14.3h8.6Z"/>
    <path class="st0" d="M332.7,15.3c-.8-1-1.6-1.7-3.4-1.7s-2.8.7-2.8,2.2,1.3,2.3,3.4,2.6c2.7.5,4.4,1.5,4.4,4.1s-1.2,4-4.8,4-4-.8-5.1-2.3l1.5-1c.9,1.1,1.8,1.7,3.6,1.7s3-1.1,3-2.3-.7-2.3-3.4-2.7c-2.7-.4-4.4-1.7-4.4-4.2s1.3-3.8,4.6-3.8,3.7.8,4.7,2.3l-1.4,1Z"/>
    <path class="st0" d="M347.4,12.2v8.5c0,4.2-2,6-5.2,6s-5.2-1.8-5.2-6v-8.5h1.8v8.5c0,3.1,1.2,4.3,3.4,4.3s3.4-1.2,3.4-4.3v-8.5h1.8Z"/>
    <path class="st0" d="M359,26.4l-3-6h-3.4v6h-1.8v-14.3h4.5c3.3,0,5.2,1.4,5.2,4.1s-1,3.3-2.8,3.8l3.2,6.3h-2ZM355.5,18.8c2.4,0,3.4-.7,3.4-2.5s-1-2.5-3.4-2.5h-2.8v5h2.8Z"/>
    <path class="st0" d="M372,12.2v1.6h-6.8v4.5h6.2v1.6h-6.2v5h6.8v1.6h-8.6v-14.3h8.6Z"/>
  </g>
  <g>
    <g>
      <path class="st0" d="M20.6,3c-.9.8-1.1,1.7-1.8,4.7l-5.6,30.3h-3.6L4,7.7c-.6-3.1-.8-3.9-1.8-4.7-.4-.3-.2-1,.3-1h5.8c.3,0,.4.4.2.6-1.3,1-1.2,2.3-.8,4.6l3.8,20.4,3.8-20.4c.3-2.2.5-3.6-.8-4.6-.2-.2-.1-.6.2-.6h5.8c.4,0,.6.7.3,1Z"/>
      <path class="st0" d="M72.4,2h16v4.5c0,.4-.7.6-1,.3-.7-.8-1.5-1.1-4.1-1.1h-1.1v26.6c0,3.1.2,3.9,1.1,4.7.4.3.2,1-.3,1h-5.4c-.4,0-.6-.7-.3-1,.9-.8,1.1-1.6,1.1-4.7V5.7h-1.1c-2.6,0-3.4.3-4.1,1.1-.3.4-1,.2-1-.3V2Z"/>
      <path class="st0" d="M106.4,8.4v23.1c0,3.6-3,6.4-6.6,6.4h-2.5c-3.6,0-6.6-2.9-6.6-6.4V8.4c0-3.6,3-6.4,6.6-6.4h2.5c3.6,0,6.6,2.9,6.6,6.4ZM102.7,8.4c0-1.5-1.3-2.7-2.9-2.7h-2.5c-1.6,0-2.9,1.2-2.9,2.7v23.1c0,1.5,1.3,2.7,2.9,2.7h2.5c1.6,0,2.9-1.2,2.9-2.7V8.4Z"/>
      <path class="st0" d="M28,28.3l5.2-1.4v-3.8l-5.2,1.4V5.7h3.9c.6,0,1.1.2,2.1,1.4l2.8-2.4c-1.1-1.3-2.4-2.5-4.4-2.7h0s-3,0-3,0c0,0,0,0,0,0h-5.8c-.4,0-.6.7-.3,1,.7.6.9,1.2,1,2.8v27.2c0,2.6-.2,3.3-1,4-.4.3-.2,1,.3,1h.7s11.6,0,11.6,0v-3.7h-7.9v-6Z"/>
      <path class="st0" d="M62,26.6v-7.3l5.2-1.4v-3.8l-5.2,1.4V5.7h3.9c.6,0,1.1.2,2.1,1.4l2.8-2.4c-1.1-1.3-2.4-2.5-4.4-2.7h0s-3,0-3,0c0,0,0,0,0,0h-5.8c-.4,0-.6.7-.3,1,.7.6.9,1.2,1,2.8v27.2c0,2.6-.2,3.3-1,4-.4.3-.2,1,.3,1h.7s11.6,0,11.6,0v-3.7h-7.9v-7.7Z"/>
      <path class="st0" d="M46.2,19.6v3.8l4-1.1v9.2c0,1.5-1,2.8-2.3,2.8h-2.1c-1.3,0-2.3-1.2-2.3-2.8V8.5c0-1.5,1-2.8,2.3-2.8h3.1c.3,0,.6,0,1.6,1.3l3-2.2c-1-1.4-2.3-2.8-4.6-2.8h-3.1c-3.3,0-6,2.9-6,6.5v23.1c0,3.6,2.7,6.4,6,6.4h2.1c3.3,0,6-2.9,6-6.4v-14l-7.7,2Z"/>
    </g>
    <path class="st0" d="M111.3,38h-3.7v-.8l2-2.4c.4-.4.6-.8.6-1.2s-.4-.7-.7-.7-.7.3-.7.7h-1.1c0-1,.8-1.7,1.9-1.7s1.9.7,1.9,1.7-.5,1.4-.9,1.9l-1.2,1.4h2.1v1Z"/>
  </g>
</svg>